<?xml version="1.0" ?><!DOCTYPE svg  PUBLIC '-//W3C//DTD SVG 1.1//EN'  'http://www.w3.org/Graphics/SVG/1.1/DTD/svg11.dtd'><svg enable-background="new 0 0 32 32" height="32px" version="1.1" viewBox="0 0 32 32" width="32px" xml:space="preserve" xmlns="http://www.w3.org/2000/svg" xmlns:xlink="http://www.w3.org/1999/xlink"><g id="Emoji_x2C__sad_x2C__cry_x2C__sadness"><path d="M16,30C8.28,30,2,23.72,2,16S8.28,2,16,2s14,6.28,14,14S23.72,30,16,30z M16,3C8.832,3,3,8.832,3,16   s5.832,13,13,13s13-5.832,13-13S23.168,3,16,3z" fill="#263238"/><path d="M19.5,24c-0.172,0-0.339-0.089-0.433-0.248C19.027,23.684,17.977,22,15,22s-4.027,1.684-4.07,1.755   c-0.143,0.235-0.449,0.313-0.684,0.174c-0.236-0.141-0.316-0.443-0.178-0.681C10.122,23.156,11.42,21,15,21   s4.878,2.156,4.932,2.248c0.139,0.238,0.058,0.545-0.18,0.684C19.673,23.979,19.586,24,19.5,24z" fill="#263238"/><path d="M21.5,16c-3.947,0-5.363-2.14-5.421-2.23c-0.149-0.232-0.082-0.542,0.151-0.69   c0.232-0.15,0.541-0.082,0.69,0.151C16.967,13.3,18.134,15,21.5,15c0.276,0,0.5,0.224,0.5,0.5S21.776,16,21.5,16z" fill="#263238"/><path d="M6.5,16C6.224,16,6,15.776,6,15.5S6.224,15,6.5,15c3.366,0,4.533-1.7,4.581-1.773   c0.152-0.228,0.46-0.293,0.691-0.144c0.23,0.149,0.297,0.455,0.149,0.687C11.863,13.86,10.447,16,6.5,16z" fill="#263238"/><g><path d="M23,22c-1.103,0-2-0.897-2-2c0-1.319,1.42-3.526,1.582-3.773c0.091-0.14,0.246-0.225,0.412-0.227    c0.167-0.021,0.323,0.078,0.417,0.216C23.574,16.45,25,18.553,25,20C25,21.103,24.103,22,23,22z M23.009,17.448    C22.558,18.235,22,19.36,22,20c0,0.552,0.449,1,1,1s1-0.448,1-1C24,19.296,23.455,18.205,23.009,17.448z" fill="#263238"/></g></g></svg>